<svg width="894" height="798" viewBox="0 0 894 798" fill="none" xmlns="http://www.w3.org/2000/svg">
<path d="M429 0H428L418 2C396 4.66667 374.5 10.8333 353.5 20.5C332.5 30.1667 314 43 298 59C270.667 83.6667 251.667 114 241 150C235 170 232.333 191 233 213C233.667 235 237.667 256 245 276C256.333 306 273.667 332 297 354L310 366L227 501C209.667 500.333 194.667 502.667 182 508C162 516.667 147 530 137 548C132.333 558 129.333 568.333 128 579C126.667 589.667 127.333 600.333 130 611C135.333 631 146.333 647 163 659C173 665.667 184 670.5 196 673.5C208 676.5 220 677.167 232 675.5C244 673.833 255.5 669.667 266.5 663C277.5 656.333 286.667 648 294 638C302 626.667 306.833 613.667 308.5 599C310.167 584.333 308.333 570.667 303 558C302.333 554.667 300 550 296 544L293 538L411 346C415 340 417.667 335.333 419 332L409 329C403 327.667 398.667 326.333 396 325C380.667 318.333 366.833 309.167 354.5 297.5C342.167 285.833 332.667 272.667 326 258C314.667 234 311.667 209 317 183C319.667 167.667 325.333 153.333 334 140C342.667 126.667 353 115.333 365 106C389.667 88 417 79 447 79C465 78.3333 482.5 81.5 499.5 88.5C516.5 95.5 531.333 105.667 544 119C555.333 129.667 564.167 142.5 570.5 157.5C576.833 172.5 580.333 187.667 581 203C581 214.333 579 228.333 575 245L645 264L653 265C662.333 236.333 664.667 207.667 660 179C657.333 157 650.833 135.833 640.5 115.5C630.167 95.1667 617 77.3333 601 62C573 34 538.667 15.3333 498 6C494 4.66667 488 3.33333 480 2L466 0H429ZM447 124C435.667 124 424.333 126.333 413 131C401.667 135.667 391.5 142.5 382.5 151.5C373.5 160.5 367 171 363 183C357.667 196.333 356.333 211 359 227C361 239 365.667 250.333 373 261C380.333 271.667 389.667 280 401 286C417 296 435.667 300.333 457 299C459 301.667 460.667 304.333 462 307L574 498C576 502 578 505 580 507C598 489.667 617.5 477.833 638.5 471.5C659.5 465.167 681.167 464 703.5 468C725.833 472 745.333 480.667 762 494C783.333 510.667 797.833 531.167 805.5 555.5C813.167 579.833 813.333 604.333 806 629C800.667 647.667 791.167 664.333 777.5 679C763.833 693.667 747.667 704.667 729 712C708.333 720.667 686.167 723.5 662.5 720.5C638.833 717.5 617.667 709.333 599 696C596.333 694 592 690.667 586 686L581 680C578.333 682 574.667 685.333 570 690L523 736C538.333 751.333 555.667 764.167 575 774.5C594.333 784.833 614.667 792 636 796L658 800H697L725 795C767.667 786.333 804.333 766.333 835 735C849.667 720.333 861.833 703.5 871.5 684.5C881.167 665.5 887.667 645.667 891 625C894.333 601 893.667 577.167 889 553.5C884.333 529.833 876 508.333 864 489C852 469.667 837.333 452.667 820 438C802.667 423.333 783.667 411.667 763 403C740.333 393.667 716.833 388.333 692.5 387C668.167 385.667 644.333 388 621 394L604 399L523 262C531.667 249.333 537 237 539 225C542.333 203.667 538 183.667 526 165C515.333 148.333 500.667 136.667 482 130C470.667 126 459 124 447 124ZM165 388C126.333 396.667 93 414.333 65 441C33.6667 470.333 13.3333 505.333 4 546L0 570V607L2 618C3.33333 626.667 4.66667 633.333 6 638C10.6667 658.667 18.8333 678.333 30.5 697C42.1667 715.667 56.3333 732 73 746C106.333 773.333 144.667 789.667 188 795C213.333 797.667 238.667 796.167 264 790.5C289.333 784.833 312.667 775.333 334 762C369.333 739.333 395.333 709 412 671C416.667 659.667 421.333 644.667 426 626C430 625.333 436 625.333 444 626L569 628C578.333 628 585 628.333 589 629C596.333 642.333 604.667 652.667 614 660C623.333 667.333 633.833 672.667 645.5 676C657.167 679.333 669 680.667 681 680C699.667 678 716.333 671.333 731 660C749 646 759.667 628 763 606C764.333 594.667 763.833 583.667 761.5 573C759.167 562.333 754.667 552.333 748 543C737.333 528.333 723.667 517.667 707 511C695.667 506.333 683.833 504.167 671.5 504.5C659.167 504.833 647.333 507.333 636 512C617.333 520 603 532.333 593 549L590 555C580.667 555 566.667 554.667 548 554L435 553C425 552.333 410.667 552 392 552L342 551L345 568C350.333 596.667 346 623.667 332 649C322.667 667 309.333 682 292 694C274.667 706 255.667 713.333 235 716C211.667 720 188.333 717.5 165 708.5C141.667 699.5 122.667 685.333 108 666C89.3333 642.667 80.3333 616.333 81 587C81.6667 562.333 89.3333 539.333 104 518C112.667 505.333 123.333 494.667 136 486C148.667 477.333 162.333 471 177 467L186 464L165 388Z" fill="#0044CC"/>
</svg>
